
                    <svg style="position: relative;left:30px" xmlns="http://www.w3.org/2000/svg" width="755.406"
                        height="140" viewBox="0 0 755.406 90">
                        <g id="Group_15" data-name="Group 15" transform="translate(-1530 -30.046)">
                            <g id="Group_13" data-name="Group 13">
                                <g id="Group_7" data-name="Group 7">
                                    <g id="Group_6" data-name="Group 6">
                                        <g id="Group_2" data-name="Group 2">
                                            <path id="Path_1" data-name="Path 1"
                                                d="M1911.45,42.383l0-.069-.45,0-.013.054a.452.452,0,0,1-.158.254c-.207.016-1,.044-1.787.044h-4.021c-.784,0-1.581-.028-1.781-.043a.444.444,0,0,1-.165-.256l-.013-.053-.449,0-.033,1.148-.1,1.306-.006.071.593.045.159-.622c.191-.669.431-.717,1.841-.717h.83a3.334,3.334,0,0,1,.121,1.288v5.855c0,1.167-.027,1.4-.339,1.447l-.72.088.024.572,1.971-.042,2.129.042.024-.572-.716-.087c-.315-.049-.342-.281-.342-1.448V44.833a3.345,3.345,0,0,1,.121-1.288h.83c1.409,0,1.649.048,1.842.715l.157.624.594-.045-.107-1.373Z" />
                                            <path id="Path_2" data-name="Path 2"
                                                d="M1922.379,42.565s-.819.044-1.344.044c-.627,0-1.616-.043-1.616-.043l-.079,0-.029.546.529.073a.219.219,0,0,1,.221.251,3.95,3.95,0,0,1-.611,1.409l-1.161,1.958-1.19-2.074c-.093-.168-.187-.326-.273-.472a2.681,2.681,0,0,1-.413-.865c0-.064.018-.135.24-.182l.478-.1-.043-.543-.067,0c-.015,0-1.5.044-2.1.044s-1.821-.043-1.833-.044l-.069,0-.038.532.5.125c.335.084.606.411,1.319,1.592l1.732,2.846a1.273,1.273,0,0,1,.242.848v2.183c0,1.137-.03,1.387-.355,1.449l-.715.123.039.535.068,0c.014,0,1.4-.044,2-.044s1.924.044,1.938.044l.068,0,.039-.538-.716-.12c-.323-.05-.354-.3-.354-1.449V48.313a1.471,1.471,0,0,1,.24-.98l1.584-2.537c.818-1.309,1.014-1.521,1.5-1.62l.385-.089-.041-.526Z" />
                                            <path id="Path_3" data-name="Path 3"
                                                d="M1872.792,50.459l-.05-.009-.32.572c-.41.723-.737.851-2.188.851h-1.155c-.625,0-.832-.227-.832-1.569V47.971a.11.11,0,0,1,.04-.045h1.118c1.188,0,1.4.136,1.44.442l.093.645.057.005a2.436,2.436,0,0,0,.426.012l.055-.014-.006-.2c-.013-.467-.025-.908-.025-1.268s.012-.788.025-1.253l.006-.2-.055-.013a3.089,3.089,0,0,0-.453.017l-.057,0-.066.54c-.036.294-.252.425-1.44.425h-1.118a.119.119,0,0,1-.04-.046v-2.3a3.055,3.055,0,0,1,.145-1.23h1.161c1.375,0,1.76.093,2.052.785l.205.488.055-.008c.039-.005.383-.055.444-.07l.065-.016-.012-.065c-.125-.675-.259-1.591-.3-1.867-.023-.072-.1-.109-.169-.145l-.02-.01-.023,0c-.186.029-.877.029-2.254.029h-2.546c-.751,0-1.446-.017-1.771-.044l-.061,0-.013.059a3.2,3.2,0,0,0-.005.432l0,.056.7.129c.313.048.338.261.338,1.434v6.018c0,1.173-.025,1.386-.339,1.435l-.729.118,0,.062c0,.062.017.374.033.436l.013.056.293-.011c.4-.014.946-.035,1.568-.035h3.154c1.4,0,2.244,0,2.4.029l.024,0,.022-.011a.27.27,0,0,0,.152-.144l0-.009a20.089,20.089,0,0,1,.457-1.968l.019-.058-.054-.026A3.552,3.552,0,0,0,1872.792,50.459Z" />
                                            <path id="Path_4" data-name="Path 4"
                                                d="M1885.459,52.223l-.386-.056c-.443-.069-.806-.456-1.672-1.582a31.762,31.762,0,0,1-1.989-2.859.079.079,0,0,1,.006-.048v-.005A2.738,2.738,0,0,0,1883.4,45.2c0-1.688-1.31-2.7-3.506-2.7-.3,0-.711.022-1.143.046-.511.028-1.04.057-1.507.057-.38,0-.72-.011-1.078-.024-.212-.007-.431-.015-.668-.02h-.057l-.013.055a3.27,3.27,0,0,0-.005.445l0,.058.7.114c.314.048.339.261.339,1.434v6.018c0,1.173-.025,1.386-.34,1.435l-.719.115V52.3a3.941,3.941,0,0,0,.024.44l.013.055h.057c.206,0,.424-.011.645-.017.463-.013.942-.027,1.352-.027s.848.013,1.28.026l.658.018h.057l.013-.055c.016-.061.042-.374.047-.436l.006-.065-.732-.115c-.308-.048-.354-.236-.354-1.435V44.715a3.341,3.341,0,0,1,.136-1.285,2.076,2.076,0,0,1,.637-.092,1.918,1.918,0,0,1,2.075,2.1,1.8,1.8,0,0,1-1.392,1.922,1.83,1.83,0,0,1-.542.061l-.089-.009-.137.682.07.013c.055.011.112.02.166.026a.187.187,0,0,1,.169.1l.252.436a21.844,21.844,0,0,0,2.753,4.107l.024.023.033,0c.332-.028.866-.044,1.43-.044.32,0,1.062.029,1.328.044l.059,0,.013-.057a3.606,3.606,0,0,0,.006-.457Z" />
                                            <path id="Path_5" data-name="Path 5"
                                                d="M1899.359,50.688V44.67c0-1.2.046-1.387.355-1.434l.72-.119,0-.063c-.005-.062-.023-.373-.039-.435l-.013-.055h-.057c-.2,0-.411.011-.627.017-.469.013-.955.027-1.37.027s-.857-.013-1.294-.026l-.643-.018h-.056l-.014.053a3.926,3.926,0,0,0-.02.449v.061l.714.109c.314.048.339.261.339,1.434v6.018c0,1.173-.025,1.386-.341,1.435l-.728.123,0,.062a3.97,3.97,0,0,0,.033.433l.014.053h.056c.2,0,.422-.011.643-.017.464-.013.943-.027,1.354-.027s.848.013,1.28.026l.657.018h.057l.013-.055c.016-.061.042-.371.047-.432l.006-.066-.732-.118C1899.405,52.075,1899.359,51.887,1899.359,50.688Z" />
                                            <path id="Path_6" data-name="Path 6"
                                                d="M1850.079,50.688V44.67c0-1.2.046-1.387.354-1.434l.722-.119,0-.063c0-.062-.022-.373-.038-.435l-.013-.055h-.057c-.2,0-.413.011-.629.017-.469.013-.953.027-1.368.027s-.857-.013-1.293-.026l-.645-.018h-.057l-.014.055a4.126,4.126,0,0,0-.019.447v.061l.715.109c.313.048.339.261.339,1.434v6.018c0,1.173-.026,1.386-.341,1.435l-.728.123,0,.062c0,.061.017.369.032.431l.014.055h.057c.2,0,.424-.011.645-.017.462-.013.942-.027,1.352-.027s.847.013,1.279.026l.659.018h.057l.013-.055c.016-.061.042-.371.046-.433l0-.065-.732-.118C1850.125,52.075,1850.079,51.887,1850.079,50.688Z" />
                                            <path id="Path_7" data-name="Path 7"
                                                d="M1844.683,42.564h-.056c-.227.005-.439.013-.646.02-.36.012-.7.024-1.084.024s-.752-.012-1.129-.024c-.213-.007-.43-.015-.661-.02h-.057l-.013.055a4.211,4.211,0,0,0-.025.441v.061l.749.129c.542.09.725.471.74,2.542l.015,3.926-4.465-5.255c-.76-.886-1.181-1.449-1.433-1.8l-.018-.017a.651.651,0,0,0-.184-.083l-.011,0h-.011c-.495.031-1.136.044-1.551.044-.47,0-.871-.017-1.328-.044l-.059,0-.014.057a4.715,4.715,0,0,0-.012.489v.062l.561.066a.821.821,0,0,1,.649.358,1.358,1.358,0,0,1,.28.929v5.265c0,1.912-.137,2.26-.55,2.335l-.67.133.006.063c.005.06.032.359.046.42l.014.055h.057c.231-.005.446-.012.655-.02.357-.012.695-.024,1.076-.024s.746.012,1.122.025c.214.007.435.014.668.019h.057l.013-.055c.016-.061.024-.355.027-.444v-.061l-.736-.126c-.544-.091-.74-.488-.755-2.542l-.015-4.443,5.65,6.6c.507.589.788.966.886,1.1a.308.308,0,0,0,.263.145,6.917,6.917,0,0,0,.873-.031l.065-.013-.009-.065a26.681,26.681,0,0,1-.118-2.881V45.57c0-1.819.1-2.256.533-2.334l.642-.107v-.061a4.162,4.162,0,0,0-.023-.451Z" />
                                            <path id="Path_8" data-name="Path 8"
                                                d="M1831.584,42.564h-.056c-.224.005-.436.013-.644.019-.375.013-.729.025-1.117.025-.411,0-.843-.013-1.262-.026l-.645-.018h-.058l-.013.055c-.015.061-.022.366-.025.458v.062l.7.1c.523.089.771.463.771,2.349v3.672c0,1.865-.818,2.812-2.432,2.812-1.157,0-2.535-.491-2.535-2.826V44.685c0-1.131.032-1.4.356-1.449l.7-.115v-.06a3.67,3.67,0,0,0-.018-.444l-.014-.053h-.056c-.2,0-.412.011-.627.017-.468.013-.954.027-1.37.027s-.857-.013-1.293-.026l-.645-.018h-.056l-.014.055a4.045,4.045,0,0,0-.019.442v.06l.7.115c.308.047.354.235.354,1.434v4.69c0,2.432,1.489,3.718,4.306,3.718a3.463,3.463,0,0,0,3.8-3.806v-3.7c0-1.854.239-2.259.653-2.335l.594-.121v-.058a3.935,3.935,0,0,0-.021-.437Z" />
                                            <path id="Path_9" data-name="Path 9"
                                                d="M1863.385,42.619l-.013-.055h-.058c-.253.006-.464.014-.663.022-.3.012-.551.022-.875.022-.348,0-.652-.011-.974-.022-.214-.008-.44-.016-.7-.022h-.057l-.014.055c-.014.062-.037.361-.042.42l-.005.063.6.119a.477.477,0,0,1,.361.227c.167.282.111.814-.166,1.583l-1.925,5.435-2.087-5.731-.088-.242a5,5,0,0,1-.307-1c0-.128.023-.21.356-.27l.571-.106v-.06c0-.086-.011-.375-.027-.438l-.014-.053h-.057l-.582.015c-.5.015-1.015.029-1.444.029s-.9-.014-1.362-.028c-.208-.006-.412-.012-.605-.016h-.056l-.014.053c-.016.062-.029.35-.033.437l0,.06.515.105c.38.095.56.376,1.018,1.58l2.532,6.577a11.361,11.361,0,0,1,.47,1.466l.007.034.032.014a2.4,2.4,0,0,0,.661.061,2.32,2.32,0,0,0,.659-.062l.03-.015.008-.032a12.808,12.808,0,0,1,.456-1.466l2.443-6.578c.456-1.24.686-1.489,1.03-1.578l.449-.1v-.058C1863.406,42.974,1863.4,42.681,1863.385,42.619Z" />
                                            <path id="Path_10" data-name="Path 10"
                                                d="M1891.247,46.63c-1-.568-1.953-1.1-1.953-2.107a1.425,1.425,0,0,1,1.616-1.406,1.726,1.726,0,0,1,1.875,1.5l.014.059.06,0c.065-.005.39-.034.453-.05l.06-.016-.007-.062c-.084-.649-.151-1.314-.181-1.795a.336.336,0,0,0-.131-.156l-.02-.01a7.58,7.58,0,0,0-2.019-.253c-2.36,0-3.417,1.48-3.417,2.946,0,1.774,1.26,2.473,2.37,3.09.989.549,1.923,1.068,1.923,2.249,0,.991-.687,1.583-1.838,1.583a2.255,2.255,0,0,1-2.414-2.1l-.014-.065-.066.009c-.041.006-.409.06-.469.075l-.065.016.012.065c.107.594.2,1.661.236,2.117v.018l.011.015a.5.5,0,0,0,.144.141,5.36,5.36,0,0,0,2.52.539,4.291,4.291,0,0,0,2.64-.854,2.99,2.99,0,0,0,1.192-2.431C1893.78,48.061,1892.434,47.3,1891.247,46.63Z" />
                                        </g>
                                        <g id="Group_5" data-name="Group 5">
                                            <g id="Group_3" data-name="Group 3">
                                                <path id="Path_11" data-name="Path 11"
                                                    d="M1670.685,53.078a5.268,5.268,0,0,0,5.419-5.352,5.389,5.389,0,0,0-5.509-5.382,5.268,5.268,0,0,0-5.418,5.352A5.388,5.388,0,0,0,1670.685,53.078Zm-3.28-5.664c0-2.039.8-4.218,3.041-4.218,2.516,0,3.429,2.878,3.429,4.812,0,2.039-.8,4.218-3.041,4.218C1668.317,52.226,1667.405,49.348,1667.405,47.414Z" />
                                                <path id="Path_12" data-name="Path 12"
                                                    d="M1628.569,43.472l-.031-1.089,0-.069-.451,0-.013.054a.457.457,0,0,1-.161.256c-.207.016-1.008.044-1.8.044h-4.044c-.789,0-1.59-.028-1.791-.043a.435.435,0,0,1-.167-.257l-.013-.054-.452,0-.034,1.155-.1,1.314-.006.071.6.045.158-.625c.193-.673.434-.722,1.853-.722h.835a3.38,3.38,0,0,1,.122,1.3v5.889c0,1.174-.028,1.408-.342,1.456l-.723.089.024.575,1.981-.042,2.143.042.024-.575-.721-.088c-.317-.049-.344-.283-.344-1.457V44.848a3.38,3.38,0,0,1,.122-1.3h.835c1.418,0,1.659.049,1.853.72l.158.627.6-.045Z" />
                                                <path id="Path_13" data-name="Path 13"
                                                    d="M1635.667,42.344a5.268,5.268,0,0,0-5.419,5.352,5.388,5.388,0,0,0,5.508,5.382,5.267,5.267,0,0,0,5.418-5.352A5.388,5.388,0,0,0,1635.667,42.344Zm3.279,5.664c0,2.039-.8,4.218-3.041,4.218-2.516,0-3.429-2.878-3.429-4.812,0-2.039.8-4.218,3.042-4.218C1638.033,43.2,1638.946,46.074,1638.946,48.008Z" />
                                                <path id="Path_14" data-name="Path 14"
                                                    d="M1653.4,52.855l.069,0,.04-.581-.424-.038c-.364-.056-.73-.363-1.7-1.431-1.067-1.156-2.657-3.2-3.191-3.9a.131.131,0,0,1,0-.066l2.758-2.819c.58-.608.836-.781,1.24-.839l.432-.064.068-.01-.06-.546-.067,0c-.011,0-1.076.045-1.6.045-.647,0-1.714-.044-1.725-.045l-.072,0-.02.566.6.054c.129.012.2.085.2.2,0,.176-.3.547-.861,1.17-.925,1.042-1.995,2.133-2.6,2.713l-.026,0V44.684c0-1.136.032-1.408.356-1.457l.738-.121-.06-.541-2.063.045-2.03-.045-.024.531.721.131c.314.048.341.283.341,1.457v6.053c0,1.181-.025,1.4-.344,1.444l-.746.147.056.529.066,0c.014,0,1.405-.044,2.009-.044.4,0,.852.013,1.287.026l.661.018.066,0,.059-.549-.738-.127c-.309-.048-.355-.237-.355-1.444v-2.57a1.23,1.23,0,0,1,.116-.106l.009-.008a58.337,58.337,0,0,0,3.878,4.781l.024.024.033,0c.319-.028.856-.044,1.438-.044C1652.283,52.811,1653.391,52.855,1653.4,52.855Z" />
                                                <path id="Path_15" data-name="Path 15"
                                                    d="M1663.972,43.092l-.041-.529-.069,0c-.009,0-.823.045-1.351.045-.632,0-1.626-.044-1.635-.045l-.071,0-.029.549.532.074a.221.221,0,0,1,.223.252,3.965,3.965,0,0,1-.615,1.418l-1.168,1.97-1.2-2.087c-.094-.169-.188-.328-.275-.475a2.688,2.688,0,0,1-.415-.87c0-.064.018-.135.24-.183l.483-.1-.044-.546-.067,0c-.016,0-1.511.045-2.114.045s-1.832-.044-1.832-.044l-.081,0-.038.534.5.127c.337.084.61.413,1.326,1.6l1.743,2.863a1.285,1.285,0,0,1,.243.854v2.195c0,1.145-.03,1.4-.357,1.458l-.719.124.039.538.069,0c.014,0,1.4-.044,2.008-.044s1.935.044,1.935.044l.082,0,.039-.541-.721-.121c-.323-.05-.355-.321-.355-1.458V48.349a1.467,1.467,0,0,1,.242-.986l1.593-2.552c.823-1.317,1.02-1.53,1.506-1.63Z" />
                                            </g>
                                            <g id="Group_4" data-name="Group 4">
                                                <path id="Path_16" data-name="Path 16"
                                                    d="M1758.115,42.394a5.242,5.242,0,0,0-5.393,5.327,5.363,5.363,0,0,0,5.482,5.357,5.243,5.243,0,0,0,5.393-5.327A5.363,5.363,0,0,0,1758.115,42.394Zm3.264,5.638c0,2.029-.8,4.2-3.027,4.2-2.505,0-3.413-2.864-3.413-4.789,0-2.03.8-4.2,3.028-4.2C1760.47,43.242,1761.379,46.107,1761.379,48.032Z" />
                                                <path id="Path_17" data-name="Path 17"
                                                    d="M1734.7,53.078a5.243,5.243,0,0,0,5.394-5.327,5.364,5.364,0,0,0-5.482-5.357,5.243,5.243,0,0,0-5.394,5.327A5.364,5.364,0,0,0,1734.7,53.078Zm-3.264-5.637c0-2.03.8-4.2,3.027-4.2,2.5,0,3.413,2.865,3.413,4.79,0,2.029-.8,4.2-3.027,4.2C1732.342,52.23,1731.434,49.366,1731.434,47.441Z" />
                                                <path id="Path_18" data-name="Path 18"
                                                    d="M1787.933,50.748V44.887a3.361,3.361,0,0,1,.12-1.29h.831c1.412,0,1.652.048,1.844.716l.158.624.594-.044-.106-1.376-.033-1.083,0-.069-.45,0-.013.053a.467.467,0,0,1-.159.255c-.208.016-1.005.044-1.789.044H1784.9c-.785,0-1.582-.028-1.781-.043a.427.427,0,0,1-.167-.256l-.013-.053-.45,0-.033,1.149-.1,1.308-.006.071.595.044.157-.622c.193-.67.433-.718,1.844-.718h.832a3.387,3.387,0,0,1,.121,1.29v5.861c0,1.169-.027,1.4-.341,1.45l-.719.088.024.572,1.973-.042,2.131.042.024-.572-.717-.088C1787.96,52.15,1787.933,51.917,1787.933,50.748Z" />
                                                <path id="Path_19" data-name="Path 19"
                                                    d="M1713.569,52.858l.024-.572-.717-.088c-.315-.048-.342-.281-.342-1.45V44.887a3.4,3.4,0,0,1,.12-1.29h.832c1.411,0,1.651.048,1.844.716l.158.624.594-.044-.107-1.376-.032-1.083,0-.069-.45,0-.013.053a.453.453,0,0,1-.159.255c-.207.016-1,.044-1.789.044H1709.5c-.785,0-1.582-.028-1.781-.043a.427.427,0,0,1-.167-.256l-.013-.053-.449,0-.034,1.149-.1,1.308-.006.071.595.044.157-.622c.192-.67.433-.718,1.845-.718h.831a3.388,3.388,0,0,1,.121,1.29v5.861c0,1.169-.027,1.4-.341,1.45l-.719.088.024.572,1.972-.042Z" />
                                                <path id="Path_20" data-name="Path 20"
                                                    d="M1693.917,50.747l-.163-6.054c-.031-1.153.152-1.4.481-1.435l.628-.066-.009-.071c-.005-.04-.049-.39-.065-.451l-.014-.058-.059,0c-.417.028-.953.044-1.433.044-.513,0-1.376-.031-1.376-.031l-.063,0-.016.052c-.114.381-.372,1.124-.672,1.856l-2.411,5.976-2.571-5.977c-.295-.682-.572-1.424-.718-1.857l-.017-.05-.052,0c-.011,0-1.109.031-1.547.031s-1.381-.044-1.381-.044l-.08,0-.026.563.591.083c.5.052.578.792.558,1.4l-.133,5.183c-.045,1.833-.149,2.272-.552,2.345l-.64.118.068.55.066,0s1.018-.044,1.573-.044c.584,0,1.632.044,1.643.044l.063,0,.081-.545-.722-.124c-.509-.089-.609-.486-.594-2.357l.043-4.373,3.289,7.442.031.01a2.063,2.063,0,0,0,.454.037,2.112,2.112,0,0,0,.46-.037l.033-.009,3.1-7.5.126,5.343c.031,1.158-.024,1.386-.341,1.435l-.713.116.036.557.068,0c.2,0,.421-.01.641-.017.472-.013.96-.027,1.373-.027s.84.014,1.265.026l.661.018.067,0,.04-.556-.67-.117C1693.983,52.123,1693.947,51.893,1693.917,50.747Z" />
                                                <path id="Path_21" data-name="Path 21"
                                                    d="M1702.284,52.812c1.4,0,2.248,0,2.4.029l.023,0,.022-.01a.283.283,0,0,0,.154-.144l0-.011a19.954,19.954,0,0,1,.458-1.97l.018-.057-.054-.027a3.91,3.91,0,0,0-.465-.107l-.05-.009-.32.573c-.411.724-.739.852-2.192.852h-1.156c-.625,0-.833-.227-.833-1.57V48.029a.117.117,0,0,1,.04-.046h1.12c1.189,0,1.405.136,1.441.442l.094.646.056.005a2.352,2.352,0,0,0,.427.012l.055-.014-.005-.2c-.014-.468-.026-.909-.026-1.271s.012-.787.026-1.254l.005-.2-.055-.014a2.972,2.972,0,0,0-.454.017l-.057.005-.066.541c-.036.294-.252.425-1.441.425h-1.12a.117.117,0,0,1-.04-.046V44.769a3.064,3.064,0,0,1,.145-1.232h1.163c1.376,0,1.763.093,2.054.786l.206.488.054-.007c.039-.006.384-.055.446-.07l.064-.016-.012-.066c-.11-.591-.233-1.417-.3-1.869-.024-.074-.1-.112-.17-.146l-.02-.009-.022,0c-.187.029-.879.029-2.257.029H1699.1c-.767,0-1.446-.017-1.773-.044l-.061-.005-.014.059a3.25,3.25,0,0,0,0,.432l0,.057.7.129c.314.048.339.261.339,1.436v6.024c0,1.175-.025,1.388-.34,1.437l-.73.118,0,.063c0,.061.016.374.032.437l.014.055.293-.01c.4-.015.947-.036,1.57-.036Z" />
                                                <path id="Path_22" data-name="Path 22"
                                                    d="M1728.271,52.285l-.387-.056c-.443-.069-.807-.456-1.675-1.583a31.593,31.593,0,0,1-1.99-2.862.074.074,0,0,1,.006-.051v0a2.741,2.741,0,0,0,1.984-2.474c0-1.69-1.313-2.7-3.511-2.7-.3,0-.711.022-1.143.046-.513.028-1.042.057-1.51.057-.381,0-.723-.012-1.083-.024-.211-.008-.428-.015-.664-.02h-.058l-.013.055a3.414,3.414,0,0,0-.005.445l0,.059.7.114c.315.048.34.261.34,1.436v6.024c0,1.175-.025,1.388-.341,1.437l-.72.115v.061c0,.088.009.38.024.442l.013.054h.058c.205,0,.424-.011.645-.017.464-.013.943-.027,1.354-.027s.849.014,1.281.027l.659.017h.058l.013-.054c.015-.062.041-.375.046-.437l.005-.066-.733-.115c-.308-.048-.354-.236-.354-1.437V44.769a3.338,3.338,0,0,1,.138-1.287,2.07,2.07,0,0,1,.636-.092,1.921,1.921,0,0,1,2.078,2.1,1.876,1.876,0,0,1-1.938,1.984l-.087-.013-.137.688.071.013c.054.01.111.02.165.025a.193.193,0,0,1,.17.1l.253.439a21.8,21.8,0,0,0,2.755,4.11l.024.023.033,0c.331-.028.866-.044,1.431-.044.319,0,1.064.029,1.33.044l.059,0,.014-.057a3.59,3.59,0,0,0,.005-.458Z" />
                                                <path id="Path_23" data-name="Path 23"
                                                    d="M1749.4,43.28a4.147,4.147,0,0,0-2.475-.723h0c-.3,0-.725.022-1.171.046-.529.028-1.075.057-1.543.057-.416,0-.821-.015-1.213-.029l-.475-.015-.056,0-.014.056a4.288,4.288,0,0,0-.014.452v.059l.71.121c.313.049.339.26.339,1.422v6.024c0,1.182-.026,1.4-.337,1.444l-.724.088v.063c0,.092.01.4.025.46l.013.054h.057c.2,0,.414-.01.632-.016.49-.014.995-.028,1.412-.028.46,0,1.136.017,1.733.032l.576.013.014-.055c.014-.062.055-.434.059-.476l.008-.069-.928-.117c-.36-.05-.531-.286-.531-1.495V44.739a3.06,3.06,0,0,1,.151-1.256,2.461,2.461,0,0,1,.638-.093c1.33,0,2.063.83,2.063,2.338l0,.032c-.01,1.424-.7,2.275-1.854,2.275l-.049,0-.059-.005-.166.675.075.012a3.512,3.512,0,0,0,.887.023,3.306,3.306,0,0,0,3.311-3.142A2.763,2.763,0,0,0,1749.4,43.28Z" />
                                                <path id="Path_24" data-name="Path 24"
                                                    d="M1773.268,52.835a.276.276,0,0,0,.153-.145l0-.009c.1-.538.337-1.607.5-2.133l.019-.058-.055-.027a4.854,4.854,0,0,0-.494-.125l-.056-.012-.333.763c-.342.762-.75.846-2.217.846h-1.082c-.615,0-.848-.137-.848-1.585V44.769c0-1.216.1-1.426.443-1.474l.814-.122v-.061a4.1,4.1,0,0,0-.015-.442l-.013-.055-.595.014c-.551.015-1.175.031-1.626.031-.416,0-.9-.014-1.36-.027-.213-.007-.423-.013-.624-.017h-.057l-.013.055c-.016.062-.03.371-.033.432l0,.063.731.115c.314.048.339.263.339,1.444v6.024c0,1.162-.027,1.394-.341,1.443l-.734.115,0,.063c0,.061.021.371.037.434l.014.055.056,0,.474-.014c.433-.014.923-.03,1.363-.03h3.083c1.41,0,2.261,0,2.418.029l.023,0Z" />
                                                <path id="Path_25" data-name="Path 25"
                                                    d="M1780.13,52.856h.058l.013-.054c.015-.062.041-.373.046-.434l.006-.065-.733-.119c-.308-.048-.354-.236-.354-1.437V44.724c0-1.2.046-1.389.355-1.436l.721-.119,0-.063c-.005-.062-.023-.374-.038-.436l-.013-.055h-.058c-.2,0-.408.01-.62.016-.473.014-.961.028-1.379.028s-.864-.014-1.3-.027l-.637-.017h-.056l-.014.053a4.2,4.2,0,0,0-.02.45v.061l.715.109c.314.048.339.261.339,1.436v6.024c0,1.175-.025,1.389-.341,1.437l-.729.123,0,.062a4.251,4.251,0,0,0,.033.434l.014.053h.056c.206,0,.423-.011.644-.017.464-.013.944-.027,1.355-.027s.848.014,1.281.027Z" />
                                                <path id="Path_26" data-name="Path 26"
                                                    d="M1800.608,50.619l-2.4-6.083a20.082,20.082,0,0,1-.754-2.1l-.011-.043-.389-.075-.027.028a3.968,3.968,0,0,1-.639.5,3.4,3.4,0,0,1-.772.407l-.06.019.012.062a1.339,1.339,0,0,1,.012.28,2.25,2.25,0,0,1-.114.5l-2.238,6.512c-.422,1.228-.665,1.487-1.018,1.579l-.472.114,0,.058c0,.061.017.367.033.43l.013.054h.057c.255,0,.468-.014.668-.022.282-.011.549-.022.872-.022.34,0,.619.011.914.022.21.008.432.017.7.022h.057l.013-.054c.015-.063.034-.382.037-.445l0-.064-.6-.094a.5.5,0,0,1-.369-.229,1.693,1.693,0,0,1,.1-1.289l.459-1.369c.022-.034.027-.04.037-.045l3.155,0a.112.112,0,0,1,.072.053l.5,1.365c.027.074.056.154.088.239a5.033,5.033,0,0,1,.308,1.007c0,.118-.026.207-.373.27l-.588.106.007.065c.006.061.036.371.052.432l.013.054h.057l.6-.016c.493-.014,1-.028,1.426-.028s.9.014,1.365.028c.215.006.424.012.62.016h.057l.013-.054c.016-.062.042-.369.046-.43l.005-.062-.517-.11C1801.265,52.107,1801.081,51.826,1800.608,50.619Zm-3.048-2.352a.106.106,0,0,1-.035.035h-2.462a.146.146,0,0,1-.035-.036l1.189-3.663Z" />
                                                <path id="Path_27" data-name="Path 27"
                                                    d="M1814.915,42.67l-.014-.055h-.056c-.226,0-.437.012-.642.019-.362.013-.7.025-1.09.025s-.757-.012-1.136-.025c-.212-.007-.427-.014-.656-.019h-.057l-.014.053c-.016.063-.023.355-.026.444v.06l.751.13c.543.09.726.471.741,2.544l.015,3.932-4.471-5.262c-.751-.876-1.178-1.445-1.434-1.8l-.019-.017a.6.6,0,0,0-.184-.083l-.01,0h-.011c-.49.03-1.134.044-1.553.044s-.788-.012-1.33-.044l-.059,0-.014.058a4.459,4.459,0,0,0-.013.49v.061l.561.067a.82.82,0,0,1,.651.358,1.361,1.361,0,0,1,.28.93v5.272c0,1.914-.137,2.262-.551,2.337l-.671.134.006.063c0,.059.032.359.048.421l.013.054h.057c.231,0,.445-.012.654-.02.359-.012.7-.024,1.079-.024s.746.012,1.121.024c.216.008.437.015.671.02h.057l.013-.054c.016-.062.024-.357.027-.446V52.3l-.738-.127c-.544-.09-.74-.489-.755-2.544l-.014-4.449,5.656,6.606c.513.6.791.97.888,1.106a.3.3,0,0,0,.263.144,7.154,7.154,0,0,0,.873-.03l.066-.013-.009-.066a26.725,26.725,0,0,1-.118-2.884V45.625c0-1.822.1-2.259.534-2.337l.641-.108v-.06A4.391,4.391,0,0,0,1814.915,42.67Z" />
                                            </g>
                                        </g>
                                    </g>
                                </g>
                                <g id="Group_10" data-name="Group 10">
                                    <g id="Group_8" data-name="Group 8">
                                        <path id="Path_28" data-name="Path 28"
                                            d="M1566.447,30.128a149.975,149.975,0,0,1-36.08,16.859.522.522,0,0,0-.367.509c.687,31.113,14.484,53.373,36.38,72.421a.53.53,0,0,0,.693,0c21.9-19.048,35.693-41.308,36.38-72.421a.522.522,0,0,0-.367-.509,149.973,149.973,0,0,1-36.08-16.859A.519.519,0,0,0,1566.447,30.128Z" />
                                    </g>
                                    <g id="Group_9" data-name="Group 9">
                                        <path id="Path_29" data-name="Path 29"
                                            d="M1578.856,55.7c5.829,2.742,13.707,5.106,23.06,7.34a98.986,98.986,0,0,0,1.537-15.544.522.522,0,0,0-.367-.509,149.935,149.935,0,0,1-36.08-16.859.515.515,0,0,0-.279-.082v90a.526.526,0,0,0,.346-.129,138.888,138.888,0,0,0,11.488-11.154V55.887A.206.206,0,0,1,1578.856,55.7Z"
                                            fill="#4366b0" />
                                        <path id="Path_30" data-name="Path 30"
                                            d="M1566.38,119.917a.526.526,0,0,0,.347.129v-90a.516.516,0,0,0-.28.082,149.949,149.949,0,0,1-36.079,16.859.522.522,0,0,0-.368.509,98.986,98.986,0,0,0,1.537,15.544c9.353-2.234,17.231-4.6,23.06-7.34a.206.206,0,0,1,.295.187v52.874A138.907,138.907,0,0,0,1566.38,119.917Z"
                                            fill="#6d97cf" />
                                    </g>
                                </g>
                                <g id="Group_12" data-name="Group 12">
                                    <path id="Path_31" data-name="Path 31"
                                        d="M1885.47,73.236l.022.372h21.554c1.028-1.952,2.2-4.489,4.6-10.052l6.124,3.562c-2.4,2.342-4.311,4.05-7.3,6.49h5.781l2.06-1.415a.978.978,0,0,1,1.362.154l3.475,4.094-1.265,1.538-4.554,5.143-2.4-.878,1.515-5.221H1885.7l-.039.4a11.469,11.469,0,0,1-1.881,5.942,16.1,16.1,0,0,1-5.339-3.22c2.253-1.513,2.963-4.006,3.713-7.919Zm13.4,17.5V87.27l3.674.145,3.175-3.072h-16.806l-1.175-3.612h19.117l2.242-1.453a.979.979,0,0,1,1.334.166l3.7,4.3-2.234,1.231-7.692,3.952v1.8h11.316l2.433-2.306a.98.98,0,0,1,1.353-.048l4.444,3.769-1.96,2.048H1904.2V104.2c0,2.635-1.077,3.318-5.339,3.318h-1.372c-.2-2.146-1.224-2.73-6.319-2.827v-3.028s5.291.193,5.878.193c1.519,0,1.813-.292,1.813-1.414V94.195h-18.419l-1.028-3.463ZM1887.99,63.7a34.155,34.155,0,0,1,6.956,6.49,13.34,13.34,0,0,1-5.143,3.269,39.456,39.456,0,0,0-4.654-8.149Zm11.267-.439A26.028,26.028,0,0,1,1905.282,70a14.547,14.547,0,0,1-5.486,3.173c-.588-2.782-2.5-7.417-3.527-8.54Z" />
                                    <path id="Path_32" data-name="Path 32"
                                        d="M1629.464,90.218v1.361l-4.923.242v-17.1l4.923.541h8.763V72.255h-18.035l-1.219-3.351h19.254V63.515l5.167.291v5.1h11.8l2.318-2.229a.975.975,0,0,1,1.358-.048l4.221,3.637-1.852,1.991h-17.841v3.009h8.374l1.982-1.278a.974.974,0,0,1,1.292.117l3.306,3.346-1.608,1.263V91.483l-4.826.338v-1.6h-6.324c5.6,5.1,10.478,7.963,18.569,11.362-1.852,1.068-2.437,1.554-5.167,4.176a40.372,40.372,0,0,1-15.6-14.223v15.728l-5.167.291V92.747a2.612,2.612,0,0,1-.36.687c-4.324,5.853-9.657,9.79-17.48,13l-2.145-1.991c7.019-4.128,13.106-9.033,16.031-14.227Zm8.763-8.51v-3.73h-8.763v3.73Zm0,6.106v-3.52h-8.763v3.52Zm13.687-6.106v-3.73h-8.52v3.73Zm0,6.106v-3.52h-8.52v3.52Z" />
                                    <path id="Path_33" data-name="Path 33"
                                        d="M1691.119,68.833V63.448l5.55.289v5.1H1708.2l2.156-1.845a.965.965,0,0,1,1.3-.019l4.407,3.738-1.834,1.731H1673.6l-1.3-3.605Zm-18.629,33.355a39.366,39.366,0,0,0,10.232-10.915l5.89,2.359a58.658,58.658,0,0,1-13.9,11.008Zm6.267-26.676,5.309.488h19.608l1.823-1.659a.964.964,0,0,1,1.417.049l3.613,4.013-1.448,1.01V89.788l-5.405.192v-1.2h-6.667V102.43c0,3.846-.917,4.711-4.922,4.711h-2.027c-.386-1.923-1.014-2.211-5.309-2.548v-2.979l3.813.19c3.184,0,3.184-.1,3.184-1.729V88.586h-7.68v1.538l-5.309.289Zm24.917,9.853V79.316h-19.608v6.049Zm-1.553,5.956c5.936,2.885,9.073,4.951,12.74,8.46a17.021,17.021,0,0,1-4.633,4.808A50.8,50.8,0,0,0,1699.515,93.1Z" />
                                    <path id="Path_34" data-name="Path 34"
                                        d="M1761.051,81.036c1.545-2.5,4.822-8.269,5.932-10l1.155-1.668-2.919-3.556a.964.964,0,0,0-1.419-.111l-1.692,1.393H1755.4l-4.689-.824V79.88l-2.512-2.741a.965.965,0,0,0-1.458-.017l-1.761,1.8H1743.4a87.008,87.008,0,0,0,6.717-10l-.217-.144-3.934-2.455a45.266,45.266,0,0,1-1.846,4.231l-1.329-1.793a.675.675,0,0,0-1.068-.057l-1.342,1.372h-2.77V64.355l-4.489-.24v5.961h-7.353l.772,3.028h6.581v5.817h-8.752l.82,3.028h10.97c-.984,1-2.036,1.979-3.114,2.912l-.373-.032,0,0-2.8-.192v2.814c-3.322,2.567-6.344,4.51-7.469,5.226l1.267,1.628-.021.02.529.62s2.468-1.488,5.694-3.73v15.774l4.433-.192v-2.788h8.411v2.355l4.587-.24V89.015l1.4-1.009-2.954-3.863a.965.965,0,0,0-1.416-.147l-1.913,1.51h-5.167a48.489,48.489,0,0,0,3.84-3.557h7.847l1.769-1.436v26.769l4.727-.288V70.509h5.955a56.56,56.56,0,0,1-3.385,10.527,15.692,15.692,0,0,1,5.14,11.395c0,3.124-.7,4.235-2.729,4.235l-2.953-.19v2.73c2.8,0,3.384.577,3.577,2.356h.677c4.247,0,6.373-2.98,6.373-8.509a11.183,11.183,0,0,0-2.123-6.874C1765,84.785,1764.622,84.065,1761.051,81.036Zm-18.332,19.754h-8.411V96.273h8.411Zm0-12.063V93.2h-8.411V88.727ZM1737.613,73.1h5.146a46.207,46.207,0,0,1-3.925,5.817h-1.221Z" />
                                    <g id="Group_11" data-name="Group 11">
                                        <path id="Path_35" data-name="Path 35"
                                            d="M1779.475,76.031h35.85l1.9-1.946-4.677-4.531a1.022,1.022,0,0,0-1.435.016l-2.4,2.429h-8.171V64.132l-5.975-.3V72h-16.145l1.036,3.976Z" />
                                        <path id="Path_36" data-name="Path 36"
                                            d="M1815.016,98.277a1.011,1.011,0,0,0-.708-.286h-.02a1.009,1.009,0,0,0-.716.313l-2.258,2.361h-8.031a211.171,211.171,0,0,0,8.569-21.859l.019-.068-6.644-2.306-.018.083c-2.509,11.486-3.491,15.374-6.095,24.15h-22.963l1.531,3.985.019.048h39.933l2-1.946Z" />
                                        <path id="Path_37" data-name="Path 37"
                                            d="M1787.649,77.5l-3.549,1.145.033.075a61.758,61.758,0,0,1,4.662,19.82l.007.1.092-.029a16.007,16.007,0,0,0,6.233-3.321l.035-.029-.01-.045a54.907,54.907,0,0,0-7.471-17.665Z" />
                                    </g>
                                    <path id="Path_38" data-name="Path 38"
                                        d="M1829.416,79.472l-1.158-3.942h17.567V63.474l5.887.24V75.53h10.232l2.419-2.443a.963.963,0,0,1,1.38-.041l4.646,4.311-1.93,2.115h-15.916a37.089,37.089,0,0,0,17.509,22.5,59.242,59.242,0,0,0-5.116,4.567c-9.281-6.8-13.178-13.787-14.5-24.113l-.414,0c-.917,6.3-1.93,9.207-4.922,13.389a32.8,32.8,0,0,1-14.964,10.96l-2.317-2.932c11.583-6.345,16.506-13.172,17.616-24.372Z" />
                                </g>
                            </g>
                            <g id="Group_14" data-name="Group 14">
                                <path id="Path_39" data-name="Path 39"
                                    d="M1957.9,53.088c1.521,1.241,2.08,2.514,3.322,2.514a1.294,1.294,0,0,0,1.335-1.4c0-1.615-1.739-2.763-3.788-3.415a36.121,36.121,0,0,0-4.159-.932l-.249.621A18.521,18.521,0,0,1,1957.9,53.088Zm.59,9.872c-1.149,0-2.142-1.149-2.887-1.956l-.466.248a6.074,6.074,0,0,0,.745,2.639c.807,1.211,2.825,2.608,4.005,2.608.962,0,1.335-.932,2.173-1.459,6.829-3.881,13.659-9.841,16.919-16.143l-.621-.373C1972.954,55.478,1961.437,62.96,1958.488,62.96Zm3.2-16.329c1.646,1.428,2.236,2.638,3.446,2.638a1.328,1.328,0,0,0,1.273-1.4c0-1.584-1.4-2.484-3.135-3.1a26.639,26.639,0,0,0-4.626-1.179l-.248.59A23.452,23.452,0,0,1,1961.685,46.631Z" />
                                <path id="Path_40" data-name="Path 40"
                                    d="M1986.862,45.234a6.6,6.6,0,0,0,.31,2.111c.373.993,1.738,2.608,2.918,2.608.838,0,1.087-.684,2.08-.994,1.614-.466,5.743-1.583,7.388-1.8.342-.031.528.062.373.5-2.67,6.209-10.182,13.877-17.509,17.664l.4.652A35.494,35.494,0,0,0,1997.2,56.6a20.977,20.977,0,0,1,6.085,6.209c1.3,1.707,1.955,2.669,3.011,2.669a1.549,1.549,0,0,0,1.552-1.614c0-3.1-4.812-6.271-9.872-8.1a55.252,55.252,0,0,0,4.905-6.706c.373-.559,1.614-.962,1.614-1.707,0-.869-2.483-2.949-3.632-2.949-.559,0-1.024.776-1.738.962a64.579,64.579,0,0,1-9.282,1.459c-1.056,0-1.77-.993-2.391-1.832Z" />
                                <path id="Path_41" data-name="Path 41"
                                    d="M2014.4,50.17a4.689,4.689,0,0,0,.186,1.831c.342.994,1.832,2.36,2.763,2.328a11.213,11.213,0,0,0,2.794-.776,54.146,54.146,0,0,1,5.8-1.086,1.931,1.931,0,0,1,.373,1.149c0,2.111-2.111,9.033-9.189,13.783l.528.59a20.965,20.965,0,0,0,11.175-11.766c.528-1.272,1.335-1.521,1.335-2.235,0-.59-.745-1.211-1.738-1.8,2.421-.218,4.625-.311,6.022-.311,1.676,0,3.073.28,3.694.28.776,0,1.118-.28,1.118-1.087,0-1.086-1.956-1.956-3.6-1.956a24.806,24.806,0,0,1-3.1.59c-4.842.466-13.441,1.77-15.552,1.77-.87,0-1.459-.683-2.173-1.49Zm4.563-6.488c1.056,1.956,2.018,2.98,3.788,2.98a59.174,59.174,0,0,0,9.841-1.3c.993-.186,1.334-.559,1.334-1.118,0-.993-1.21-1.583-2.949-1.583-.527,0-.962.435-2.638.869a25.913,25.913,0,0,1-5.775.839,5.455,5.455,0,0,1-3.228-1.025Z" />
                                <path id="Path_42" data-name="Path 42"
                                    d="M2058.727,54.578a19.85,19.85,0,0,1,3.943,5.339c-3.167.466-8.63,1.118-12.387,1.49,2.3-3.787,5.247-9.375,6.737-12.23.465-.87,1.4-1.273,1.4-1.925,0-.869-1.739-2.484-3.322-3.012a9.407,9.407,0,0,0-2.173-.31l-.186.5c1.024.838,1.521,1.49,1.521,2.235,0,1.676-3.85,10.617-6.147,14.932-.869.093-1.49.124-1.769.124a3.735,3.735,0,0,1-1.987-.931l-.4.186a5.018,5.018,0,0,0-.031,1.366c.156,1.18,1.8,3.135,2.981,3.135.589,0,1.4-.9,2.048-1.055,2.515-.652,9.934-1.925,14.373-2.98,1.118,2.918,1.025,4.315,2.422,4.315a1.8,1.8,0,0,0,1.738-2.018c0-3.756-4.16-7.7-8.288-9.655Z" />
                                <path id="Path_43" data-name="Path 43"
                                    d="M2096.507,41.447a12.446,12.446,0,0,1,2.639,2.7c.589.746.869,1.273,1.428,1.3a.874.874,0,0,0,.9-.993,2.323,2.323,0,0,0-1.149-1.863,10.657,10.657,0,0,0-3.508-1.583Zm-2.391,2.514a14.537,14.537,0,0,1,2.7,2.887c.528.745.807,1.273,1.3,1.273a.94.94,0,0,0,.962-.931,2.391,2.391,0,0,0-.962-1.8,10.7,10.7,0,0,0-3.632-1.863Zm-20.178,6.612a4.677,4.677,0,0,0,.187,1.832c.341.993,1.831,2.359,2.762,2.328a11.2,11.2,0,0,0,2.794-.776,54.356,54.356,0,0,1,5.805-1.087,1.935,1.935,0,0,1,.373,1.149c0,2.111-2.111,9.034-9.189,13.784l.528.589a20.96,20.96,0,0,0,11.175-11.765c.528-1.273,1.335-1.521,1.335-2.235,0-.59-.745-1.211-1.738-1.8,2.421-.217,4.625-.31,6.022-.31,1.677,0,3.074.279,3.694.279.777,0,1.118-.279,1.118-1.086,0-1.087-1.956-1.956-3.6-1.956a24.974,24.974,0,0,1-3.1.59c-4.843.465-13.442,1.769-15.553,1.769-.869,0-1.459-.683-2.173-1.49Zm4.564-6.488c1.055,1.956,2.017,2.98,3.787,2.98a59.171,59.171,0,0,0,9.841-1.3c.993-.186,1.335-.558,1.335-1.117,0-.993-1.211-1.583-2.95-1.583-.527,0-.962.434-2.638.869a25.963,25.963,0,0,1-5.774.838,5.453,5.453,0,0,1-3.229-1.024Z" />
                                <path id="Path_44" data-name="Path 44"
                                    d="M2126.774,40.888a13.475,13.475,0,0,1,2.546,2.825c.59.745.9,1.3,1.428,1.3a.847.847,0,0,0,.9-.9,2.444,2.444,0,0,0-.962-1.831,9.307,9.307,0,0,0-3.57-1.832Zm-9.22,2.359c1.428.248,2.173.466,2.266,1.211a46.226,46.226,0,0,1,.156,5.587c-1.894.187-4.222.435-6.054.622,0-1.056.031-2.143.062-2.7.093-1.087.528-1.118.528-1.8,0-1.086-2.173-2.08-3.322-2.08a5.707,5.707,0,0,0-2.142.59l.031.528c1.4.31,2.08.558,2.236,1.273a37.387,37.387,0,0,1,.217,4.47c-1.863.186-4.657.5-5.774.5-.838,0-1.366-.714-2.111-1.646l-.466.156a5.49,5.49,0,0,0,.217,1.986c.311.683,1.553,2.329,2.577,2.329a9.26,9.26,0,0,0,2.173-.715,28.017,28.017,0,0,1,3.384-.683,39.308,39.308,0,0,1-.559,4.843c0,1.087.714,2.732,1.707,2.732.87,0,1.242-.559,1.242-1.8,0-1.211-.031-3.571,0-6.085,1.739-.217,3.974-.435,6.054-.559-.031,3.6-.435,7.234-1.8,9.438a16.7,16.7,0,0,1-6.954,5.9l.342.589c4-1.21,7.109-3.2,8.878-5.742,1.832-2.546,2.08-6.24,2.2-10.338.435-.031.87-.031,1.273-.031,2.794,0,4.222.4,5.184.4.714,0,1.118-.187,1.118-.994,0-1.241-1.925-1.986-3.508-1.986-.652,0-.993.248-4.067.558.031-1.086.062-2.328.094-3.414.093-1.553.714-1.4.714-2.112,0-.9-2.049-2.266-3.633-2.266a5.71,5.71,0,0,0-2.266.683Zm6.737-.031a13.7,13.7,0,0,1,2.514,3.1c.5.745.807,1.273,1.366,1.273a.838.838,0,0,0,.9-.869,2.333,2.333,0,0,0-.838-1.739,9.409,9.409,0,0,0-3.57-2.235Z" />
                                <path id="Path_45" data-name="Path 45"
                                    d="M2148.1,42.44c1.118.559,1.832,1.086,1.832,1.645a4.135,4.135,0,0,1-.839,1.77c-2.235,3.353-8.226,9.561-15.366,13.6l.372.652a41.878,41.878,0,0,0,12.107-7.2,2.648,2.648,0,0,1,.311,1.272,70.238,70.238,0,0,1-.342,8.258c-.124,1.024-.341,1.676-.341,2.266,0,1.335.652,2.887,2.018,2.887.931,0,1.4-.652,1.4-1.894,0-1.707-.218-6.3-.062-10.617.062-.837.31-1.334.31-1.831,0-.527-.745-1.118-1.707-1.769,1.893-1.8,3.445-3.477,4.563-4.626.869-.9,1.521-.869,1.521-1.676,0-.963-1.645-2.546-3.135-3.011a6.671,6.671,0,0,0-2.453-.249Z" />
                                <path id="Path_46" data-name="Path 46"
                                    d="M2170.545,62.152c-1.086,0-2.142-1.086-2.949-1.955l-.465.279a6.677,6.677,0,0,0,.652,2.484c.651,1.117,2.669,2.794,4.221,2.794.808,0,1.18-.9,2.018-1.428,7.016-4.378,12.728-9.624,16.329-16.36l-.621-.4C2185.291,53.8,2173.464,62.152,2170.545,62.152Zm-3.259-17.011a18.6,18.6,0,0,1,4.936,4.749c.838.963,1.552,1.863,2.483,1.863a1.6,1.6,0,0,0,1.614-1.676c0-2.887-4.749-4.812-8.692-5.526Z" />
                                <path id="Path_47" data-name="Path 47"
                                    d="M2219.718,44.893l-1.8,1.769h-5.091a36.276,36.276,0,0,0,5.091-4.719c.683.062,1.086-.124,1.241-.5l-4.1-1.491a42.229,42.229,0,0,1-3.353,6.706h-13.535a10.275,10.275,0,0,0-.683-2.266l-.5.031a5.415,5.415,0,0,1-2.049,5.091,1.659,1.659,0,0,0-.993,2.111c.4.931,1.645,1.024,2.608.372a4.793,4.793,0,0,0,1.707-4.439h19.682c-.435,1.18-1.056,2.67-1.521,3.632l.279.218a26.028,26.028,0,0,0,4.874-3.2c.652-.031.993-.093,1.241-.373ZM2217.3,58.179h-7.513V56.068c.683-.093.994-.341,1.056-.776l-.528-.031a45.07,45.07,0,0,0,5.619-2.794c.683-.062,1.024-.124,1.273-.373l-2.95-2.794-1.769,1.646H2199.2l.249.9h12.665a34.953,34.953,0,0,1-3.166,3.291l-2.266-.218v3.26h-12.7l.249.9h12.448v5.65c0,.466-.155.652-.745.652-.807,0-5.215-.31-5.215-.31V65.5a6.991,6.991,0,0,1,3.414,1.149,3.019,3.019,0,0,1,.963,2.142c4.128-.373,4.687-1.646,4.687-3.881V59.079h11.89c.466,0,.776-.155.869-.5-1.242-1.148-3.384-2.824-3.384-2.824Zm-18.813-17.6a11.532,11.532,0,0,1,2.67,5.278c2.7,2.08,5.247-3.508-2.359-5.495Zm6.985-.5a10.9,10.9,0,0,1,1.925,5.4c2.608,2.391,5.712-3.042-1.614-5.587Z" />
                                <path id="Path_48" data-name="Path 48"
                                    d="M2251.041,40.95l-1.707,1.614h-3.415l-3.26-1.552V68.8h.528c1.428,0,2.328-.683,2.328-.931v-24.4h3.974c-.59,2.639-1.646,6.551-2.36,8.661a9.893,9.893,0,0,1,3.26,7.141c0,1.117-.31,1.738-.869,2.048a1.324,1.324,0,0,1-.745.156h-2.608v.465a3.177,3.177,0,0,1,1.77.683,5.444,5.444,0,0,1,.4,2.391c3.694-.125,4.936-1.832,4.936-4.967,0-2.608-1.49-5.65-5.339-8.01a67.012,67.012,0,0,0,4.78-7.761c.745,0,1.18-.092,1.428-.4Zm-13.6,11.8H2234.9a45.445,45.445,0,0,0,3.85-5.37,1.053,1.053,0,0,0,1.148-.59l-3.973-1.18a70.867,70.867,0,0,1-1.8,7.14h-9.344l.249.9h16.328c.435,0,.745-.155.839-.5-1.18-1.056-3.043-2.546-3.043-2.546ZM2236.078,57h-5.712l-2.98-1.242V68.61h.434c1.18,0,2.391-.621,2.391-.87V65.474h6.177v2.608h.435a4.17,4.17,0,0,0,2.359-.745V58.4a2.207,2.207,0,0,0,1.3-.651l-3.042-2.329Zm-5.867,7.574V57.9h6.177v6.674ZM2227.82,46.01a13.289,13.289,0,0,1,1.429,5.588c2.2,2.266,5.122-2.484-1.056-5.743ZM2225.4,45.2h15.646c.435,0,.745-.156.838-.5-1.148-1.055-2.98-2.545-2.98-2.545l-1.676,2.141h-2.856V41.167c.776-.093,1.055-.4,1.117-.838l-4.035-.373V44.3h-6.3Z" />
                                <path id="Path_49" data-name="Path 49"
                                    d="M1957.9,93.444c1.521,1.242,2.08,2.515,3.322,2.515a1.294,1.294,0,0,0,1.335-1.4c0-1.614-1.739-2.763-3.788-3.415a36.11,36.11,0,0,0-4.159-.931l-.249.621A18.554,18.554,0,0,1,1957.9,93.444Zm.59,9.872c-1.149,0-2.142-1.149-2.887-1.956l-.466.249a6.07,6.07,0,0,0,.745,2.638c.807,1.211,2.825,2.608,4.005,2.608.962,0,1.335-.931,2.173-1.459,6.829-3.88,13.659-9.841,16.919-16.143l-.621-.372C1972.954,95.834,1961.437,103.316,1958.488,103.316Zm3.2-16.329c1.646,1.428,2.236,2.639,3.446,2.639a1.328,1.328,0,0,0,1.273-1.4c0-1.583-1.4-2.484-3.135-3.1a26.65,26.65,0,0,0-4.626-1.18l-.248.59A23.611,23.611,0,0,1,1961.685,86.987Z" />
                                <path id="Path_50" data-name="Path 50"
                                    d="M1986.862,85.59a6.594,6.594,0,0,0,.31,2.111c.373.994,1.738,2.608,2.918,2.608.838,0,1.087-.683,2.08-.994,1.614-.465,5.743-1.583,7.388-1.8.342-.031.528.062.373.5-2.67,6.209-10.182,13.876-17.509,17.663l.4.652a35.494,35.494,0,0,0,14.373-9.375,21,21,0,0,1,6.085,6.209c1.3,1.707,1.955,2.67,3.011,2.67a1.549,1.549,0,0,0,1.552-1.615c0-3.1-4.812-6.27-9.872-8.1a55.175,55.175,0,0,0,4.905-6.705c.373-.559,1.614-.963,1.614-1.708,0-.869-2.483-2.949-3.632-2.949-.559,0-1.024.776-1.738.963a64.579,64.579,0,0,1-9.282,1.459c-1.056,0-1.77-.994-2.391-1.832Z" />
                                <path id="Path_51" data-name="Path 51"
                                    d="M2014.4,90.526a4.7,4.7,0,0,0,.186,1.832c.342.993,1.832,2.359,2.763,2.328a11.213,11.213,0,0,0,2.794-.776,54.094,54.094,0,0,1,5.8-1.087,1.933,1.933,0,0,1,.373,1.149c0,2.111-2.111,9.034-9.189,13.783l.528.59a20.964,20.964,0,0,0,11.175-11.765c.528-1.273,1.335-1.522,1.335-2.236,0-.589-.745-1.21-1.738-1.8,2.421-.217,4.625-.31,6.022-.31,1.676,0,3.073.279,3.694.279.776,0,1.118-.279,1.118-1.086,0-1.087-1.956-1.956-3.6-1.956a24.923,24.923,0,0,1-3.1.589c-4.842.466-13.441,1.77-15.552,1.77-.87,0-1.459-.683-2.173-1.49Zm4.563-6.488c1.056,1.956,2.018,2.98,3.788,2.98a59.28,59.28,0,0,0,9.841-1.3c.993-.187,1.334-.559,1.334-1.118,0-.993-1.21-1.583-2.949-1.583-.527,0-.962.434-2.638.869a25.977,25.977,0,0,1-5.775.838,5.453,5.453,0,0,1-3.228-1.024Z" />
                                <path id="Path_52" data-name="Path 52"
                                    d="M2058.727,94.934a19.854,19.854,0,0,1,3.943,5.34c-3.167.466-8.63,1.117-12.387,1.49,2.3-3.787,5.247-9.375,6.737-12.231.465-.869,1.4-1.273,1.4-1.925,0-.869-1.739-2.483-3.322-3.011a9.411,9.411,0,0,0-2.173-.311l-.186.5c1.024.838,1.521,1.49,1.521,2.235,0,1.677-3.85,10.617-6.147,14.932-.869.093-1.49.124-1.769.124a3.727,3.727,0,0,1-1.987-.931l-.4.186a5.018,5.018,0,0,0-.031,1.366c.156,1.18,1.8,3.136,2.981,3.136.589,0,1.4-.9,2.048-1.056,2.515-.652,9.934-1.925,14.373-2.98,1.118,2.918,1.025,4.315,2.422,4.315a1.8,1.8,0,0,0,1.738-2.018c0-3.756-4.16-7.7-8.288-9.654Z" />
                                <path id="Path_53" data-name="Path 53"
                                    d="M2096.507,81.8a12.448,12.448,0,0,1,2.639,2.7c.589.745.869,1.272,1.428,1.3a.874.874,0,0,0,.9-.993,2.32,2.32,0,0,0-1.149-1.862,10.637,10.637,0,0,0-3.508-1.583Zm-2.391,2.514a14.565,14.565,0,0,1,2.7,2.888c.528.745.807,1.272,1.3,1.272a.939.939,0,0,0,.962-.931,2.392,2.392,0,0,0-.962-1.8,10.7,10.7,0,0,0-3.632-1.862Zm-20.178,6.613a4.669,4.669,0,0,0,.187,1.831c.341.994,1.831,2.36,2.762,2.328a11.2,11.2,0,0,0,2.794-.776,54.152,54.152,0,0,1,5.805-1.086,1.931,1.931,0,0,1,.373,1.149c0,2.111-2.111,9.033-9.189,13.783l.528.59a20.961,20.961,0,0,0,11.175-11.766c.528-1.272,1.335-1.521,1.335-2.235,0-.59-.745-1.211-1.738-1.8,2.421-.218,4.625-.311,6.022-.311,1.677,0,3.074.28,3.694.28.777,0,1.118-.28,1.118-1.087,0-1.086-1.956-1.956-3.6-1.956a24.755,24.755,0,0,1-3.1.59c-4.843.466-13.442,1.77-15.553,1.77-.869,0-1.459-.684-2.173-1.49Zm4.564-6.488c1.055,1.956,2.017,2.98,3.787,2.98a59.17,59.17,0,0,0,9.841-1.3c.993-.186,1.335-.559,1.335-1.118,0-.993-1.211-1.583-2.95-1.583-.527,0-.962.435-2.638.869a25.9,25.9,0,0,1-5.774.839,5.455,5.455,0,0,1-3.229-1.025Z" />
                                <path id="Path_54" data-name="Path 54"
                                    d="M2126.774,81.244a13.5,13.5,0,0,1,2.546,2.825c.59.745.9,1.3,1.428,1.3a.847.847,0,0,0,.9-.9,2.446,2.446,0,0,0-.962-1.832,9.293,9.293,0,0,0-3.57-1.831Zm-9.22,2.36c1.428.248,2.173.465,2.266,1.21a46.252,46.252,0,0,1,.156,5.588c-1.894.186-4.222.435-6.054.621,0-1.055.031-2.142.062-2.7.093-1.086.528-1.117.528-1.8,0-1.086-2.173-2.079-3.322-2.079a5.705,5.705,0,0,0-2.142.589l.031.528c1.4.311,2.08.559,2.236,1.273a37.387,37.387,0,0,1,.217,4.47c-1.863.187-4.657.5-5.774.5-.838,0-1.366-.714-2.111-1.645l-.466.155a5.5,5.5,0,0,0,.217,1.987c.311.683,1.553,2.328,2.577,2.328a9.3,9.3,0,0,0,2.173-.714,27.823,27.823,0,0,1,3.384-.683,39.366,39.366,0,0,1-.559,4.843c0,1.086.714,2.732,1.707,2.732.87,0,1.242-.559,1.242-1.8,0-1.211-.031-3.57,0-6.084,1.739-.218,3.974-.435,6.054-.559-.031,3.6-.435,7.233-1.8,9.437a16.7,16.7,0,0,1-6.954,5.9l.342.59c4-1.211,7.109-3.2,8.878-5.743,1.832-2.545,2.08-6.24,2.2-10.337.435-.031.87-.031,1.273-.031,2.794,0,4.222.4,5.184.4.714,0,1.118-.186,1.118-.993,0-1.242-1.925-1.987-3.508-1.987-.652,0-.993.248-4.067.559.031-1.087.062-2.329.094-3.415.093-1.552.714-1.4.714-2.111,0-.9-2.049-2.266-3.633-2.266a5.694,5.694,0,0,0-2.266.683Zm6.737-.032a13.7,13.7,0,0,1,2.514,3.105c.5.745.807,1.273,1.366,1.273a.839.839,0,0,0,.9-.87,2.331,2.331,0,0,0-.838-1.738,9.409,9.409,0,0,0-3.57-2.235Z" />
                                <path id="Path_55" data-name="Path 55"
                                    d="M2148.1,82.8c1.118.559,1.832,1.087,1.832,1.646a4.133,4.133,0,0,1-.839,1.769c-2.235,3.353-8.226,9.562-15.366,13.6l.372.652a41.855,41.855,0,0,0,12.107-7.2,2.649,2.649,0,0,1,.311,1.273,70.246,70.246,0,0,1-.342,8.258c-.124,1.024-.341,1.676-.341,2.266,0,1.334.652,2.886,2.018,2.886.931,0,1.4-.651,1.4-1.893,0-1.707-.218-6.3-.062-10.617.062-.838.31-1.335.31-1.832,0-.527-.745-1.117-1.707-1.769,1.893-1.8,3.445-3.477,4.563-4.625.869-.9,1.521-.87,1.521-1.677,0-.962-1.645-2.545-3.135-3.011a6.648,6.648,0,0,0-2.453-.248Z" />
                                <path id="Path_56" data-name="Path 56"
                                    d="M2170.545,102.509c-1.086,0-2.142-1.087-2.949-1.956l-.465.28a6.672,6.672,0,0,0,.652,2.483c.651,1.118,2.669,2.794,4.221,2.794.808,0,1.18-.9,2.018-1.428,7.016-4.377,12.728-9.624,16.329-16.36l-.621-.4C2185.291,94.158,2173.464,102.509,2170.545,102.509ZM2167.286,85.5a18.58,18.58,0,0,1,4.936,4.75c.838.962,1.552,1.862,2.483,1.862a1.6,1.6,0,0,0,1.614-1.676c0-2.887-4.749-4.812-8.692-5.526Z" />
                                <path id="Path_57" data-name="Path 57"
                                    d="M2218.911,93.476h-.435v-9.5h3.136c.434,0,.776-.155.869-.5-1.149-1.086-3.042-2.576-3.042-2.576l-1.708,2.173h-11.3c-1.211-1.025-2.732-2.235-2.732-2.235l-1.708,2.142h-8.226l.248.9h3.819c-.714,5.557-2.08,11.269-4.5,15.553l.435.341a27.012,27.012,0,0,0,2.576-3.384V107.1h.466c1.335,0,2.173-.62,2.173-.838v-2.794h3.2v2.111h.434a3.714,3.714,0,0,0,2.266-.776V93.041a2.322,2.322,0,0,0,1.149-.559L2203.2,90.34l-1.335,1.428h-2.514l-.528-.218a37.082,37.082,0,0,0,2.049-7.667h5.06a1.507,1.507,0,0,0,.372-.031l.031.124h2.639v9.5H2205.5l.249.9h3.228c-.093,5.587-1.055,10.523-6.115,14.466l.31.341c7.326-3.539,8.506-9.126,8.63-14.807h3.818v14.683h.5c1.459,0,2.359-.621,2.359-.838V94.376h3.819c.434,0,.745-.155.838-.5-.993-1.087-2.7-2.639-2.7-2.639Zm-16.732-.808v9.9h-3.2v-9.9Zm9.623.808v-9.5h3.818v9.5Z" />
                                <path id="Path_58" data-name="Path 58"
                                    d="M2252.872,101.578h-.372a21.906,21.906,0,0,1-1.118,3.632.608.608,0,0,1-.589.372h-3.664c-.713,0-.838-.093-.838-.5V98.132a1.691,1.691,0,0,0,1.087-.466l-2.887-2.359-1.521,1.645h-4.5a26.192,26.192,0,0,0,.311-3.57c.652-.093,1.055-.372,1.117-.9l-4.625-.31a27.118,27.118,0,0,1-.093,4.78h-8.754l.279.9h8.351c-.776,4.533-3.353,8.351-10.183,10.834l.218.373c8.847-2.018,12.107-6.022,13.193-11.207h5V105.8c0,2.048.435,2.7,3.011,2.7h2.484c3.973,0,5.184-.682,5.184-1.924,0-.559-.155-.932-.993-1.242Zm-18.843-16.391c-.683,4.315-2.98,7.2-8.2,9.22l.124.434c6.736-1.459,10.337-4.346,11.424-9.654h3.446v5.4c0,1.894.465,2.453,3.135,2.453h2.887c4.595,0,5.619-.466,5.619-1.677,0-.5-.155-.869-1.024-1.179l-.094-2.173h-.341a9.963,9.963,0,0,1-.993,2.173.879.879,0,0,1-.714.248c-.373.031-1.242.031-2.142.031h-2.453c-.869,0-.962-.093-.962-.5V85.187h4.749a27.808,27.808,0,0,1-1.334,3.166l.31.217a24.8,24.8,0,0,0,4.5-2.763c.621-.031.932-.092,1.18-.341l-2.98-2.887-1.739,1.707h-7.761V81.492c.777-.123,1.025-.4,1.056-.807l-4.1-.372v3.973h-7.6a10.873,10.873,0,0,0-.435-2.017h-.466a5.047,5.047,0,0,1-2.638,4.284,1.837,1.837,0,0,0-1.149,2.2,1.863,1.863,0,0,0,2.794.652,4.769,4.769,0,0,0,1.956-4.222Z" />
                                <path id="Path_59" data-name="Path 59"
                                    d="M2281.246,98.225l-.776.155V82.269c.807-.093,1.056-.435,1.118-.869l-4-.435V98.908l-10.679,2.049.435.838,10.244-1.987v9.22h.59c1.055,0,2.3-.652,2.3-.993V99.25l4.253-.808a.73.73,0,0,0,.683-.652c-1.087-.869-2.825-2.173-2.825-2.173Zm-17.074-7.543h4.408c.435,0,.746-.156.839-.5-1.025-1.025-2.763-2.515-2.763-2.515l-1.521,2.111h-.963v-5.65c1.149-.248,2.2-.527,3.074-.807.9.311,1.521.248,1.831-.031l-3.352-2.918a39.685,39.685,0,0,1-9.748,4.532l.124.435a49.918,49.918,0,0,0,5.215-.652v5.091h-5.246l.248.9h4.533a32.77,32.77,0,0,1-5.464,12.137l.4.373a25.948,25.948,0,0,0,5.525-6.426v12.355h.466a2.982,2.982,0,0,0,2.39-.838V93.413a12.826,12.826,0,0,1,2.266,4.377c2.36,1.832,4.595-2.732-2.266-5.215Zm5.06.62a11.153,11.153,0,0,1,3.508,4.781c2.856,1.863,4.967-3.818-3.228-5Zm.652-7.512a11.11,11.11,0,0,1,3.415,4.9c2.794,1.924,4.967-3.695-3.135-5.154Z" />
                            </g>
                        </g>
                    </svg>